<svg id="svg" version="1.1" xmlns="http://www.w3.org/2000/svg" xmlns:xlink="http://www.w3.org/1999/xlink" width="400" height="213.953488372093" viewBox="0, 0, 400,213.953488372093"><g id="svgg"><path id="path0" d="M281.113 16.713 C 277.426 17.206,274.469 18.846,273.964 20.678 C 272.689 25.294,290.251 40.665,299.779 43.274 C 303.033 44.164,310.601 43.868,315.346 42.664 C 318.905 41.762,323.194 36.961,323.252 33.815 C 323.298 31.383,322.587 30.754,320.485 31.365 C 318.181 32.035,313.554 31.517,310.857 30.288 C 310.015 29.905,308.950 29.470,308.489 29.323 C 308.028 29.175,307.560 28.970,307.448 28.867 C 307.336 28.763,306.899 28.678,306.476 28.678 C 301.788 28.678,297.603 27.077,294.627 24.144 C 293.702 23.232,292.763 22.428,292.540 22.358 C 292.317 22.287,292.135 22.148,292.135 22.048 C 292.135 21.949,291.822 21.512,291.439 21.077 C 289.778 19.188,288.736 18.245,288.155 18.105 C 287.813 18.023,287.117 17.660,286.608 17.299 C 285.540 16.543,283.781 16.355,281.113 16.713 M111.914 22.620 C 107.071 26.995,106.919 33.937,111.610 36.454 C 114.054 37.764,129.823 35.816,132.982 33.812 C 135.872 31.980,135.302 28.186,132.089 27.871 C 131.537 27.817,130.701 27.552,130.230 27.281 C 129.759 27.011,128.965 26.685,128.464 26.557 C 127.964 26.429,127.164 26.223,126.687 26.098 C 126.210 25.974,125.367 25.583,124.815 25.230 C 123.659 24.491,123.014 24.517,121.750 25.353 C 117.830 27.947,113.992 27.108,113.971 23.653 C 113.960 21.833,113.205 21.454,111.914 22.620 M360.926 58.458 C 360.648 58.996,360.593 59.631,360.653 61.615 C 360.849 68.108,364.631 70.090,373.355 68.274 C 374.532 68.029,376.795 67.637,378.384 67.404 C 384.226 66.548,386.517 65.312,386.517 63.015 C 386.517 61.415,385.717 60.740,383.721 60.657 C 382.845 60.620,381.455 60.378,380.631 60.118 C 378.734 59.519,377.751 59.537,374.960 60.223 C 366.884 62.207,365.384 62.031,363.086 58.833 C 362.159 57.542,361.462 57.421,360.926 58.458 M37.881 111.400 C 37.587 111.557,36.720 111.945,35.955 112.262 C 35.190 112.580,33.938 113.288,33.173 113.836 C 32.408 114.384,31.310 115.107,30.734 115.443 C 25.842 118.289,22.720 120.815,21.188 123.168 C 19.266 126.118,16.397 136.975,17.301 137.878 C 17.831 138.409,19.902 138.208,20.581 137.560 C 21.089 137.076,21.416 137.085,21.547 137.587 C 21.871 138.827,23.752 138.725,24.071 137.450 C 24.389 136.180,25.134 135.474,26.154 135.474 C 26.745 135.474,27.019 135.367,27.118 135.099 C 27.194 134.893,27.648 134.336,28.128 133.861 C 28.607 133.386,29.240 132.707,29.535 132.353 C 29.829 131.998,30.390 131.448,30.782 131.129 C 31.175 130.810,31.737 130.092,32.033 129.534 C 32.638 128.389,33.137 127.769,33.453 127.769 C 33.932 127.769,35.154 126.596,35.949 125.373 C 36.413 124.658,37.111 123.880,37.498 123.645 C 38.509 123.032,39.165 122.259,39.165 121.683 C 39.165 120.693,40.480 118.566,41.092 118.566 C 41.390 118.566,41.302 114.467,40.998 114.249 C 40.881 114.164,40.926 113.950,41.105 113.732 C 41.331 113.459,41.345 113.337,41.157 113.274 C 41.016 113.227,40.949 113.064,41.007 112.912 C 41.470 111.707,39.286 110.651,37.881 111.400 M11.642 147.974 C 11.007 149.628,16.802 153.930,23.328 156.650 C 24.799 157.263,27.385 158.484,29.073 159.364 C 35.597 162.764,45.470 166.463,54.720 168.974 C 56.700 169.512,59.187 170.297,60.246 170.719 C 62.857 171.760,71.713 175.549,75.655 177.312 C 85.864 181.877,97.648 184.374,101.076 182.697 C 103.889 181.321,108.264 176.904,107.971 175.736 C 107.425 173.560,102.613 169.284,97.624 166.542 C 96.522 165.937,94.995 164.983,94.229 164.422 C 93.463 163.862,92.484 163.162,92.053 162.868 C 91.623 162.574,90.983 162.059,90.632 161.723 C 88.908 160.076,84.257 157.334,82.076 156.679 C 81.605 156.538,80.161 156.097,78.866 155.700 C 72.399 153.715,66.956 152.808,59.497 152.471 C 58.261 152.416,56.361 152.180,55.274 151.947 C 54.187 151.715,52.791 151.523,52.171 151.521 C 51.551 151.518,50.417 151.420,49.652 151.303 C 48.887 151.186,47.447 150.992,46.452 150.872 C 45.457 150.752,43.242 150.357,41.529 149.993 C 38.214 149.288,35.452 149.008,30.284 148.851 C 25.447 148.704,24.408 148.612,23.021 148.205 C 21.993 147.904,21.670 147.883,21.330 148.096 C 20.511 148.607,16.998 148.623,14.717 148.126 C 12.266 147.592,11.797 147.569,11.642 147.974 M230.536 158.280 C 227.011 159.229,220.774 163.093,218.337 165.839 C 216.097 168.362,214.726 173.421,215.950 174.645 C 216.456 175.150,218.642 175.134,219.313 174.620 C 221.065 173.279,224.291 170.246,224.291 169.939 C 224.291 169.852,225.218 169.020,226.350 168.090 C 227.483 167.160,228.912 165.966,229.527 165.436 C 230.141 164.906,231.286 164.018,232.070 163.461 C 233.543 162.415,234.419 161.039,234.712 159.312 C 234.931 158.014,233.154 157.575,230.536 158.280 M208.800 188.736 C 207.838 189.799,207.275 194.016,207.801 196.211 C 208.648 199.739,216.336 203.950,220.267 203.038 C 222.050 202.625,222.928 202.758,226.110 203.925 C 231.046 205.736,239.964 206.726,244.024 205.914 C 247.860 205.147,246.391 204.475,236.918 202.665 C 229.685 201.283,227.941 200.958,227.073 200.833 C 225.679 200.632,222.473 199.764,221.700 199.379 C 219.476 198.269,212.800 192.418,210.540 189.598 C 209.587 188.407,209.249 188.240,208.800 188.736 " stroke="none" fill="#ba5707" fill-rule="evenodd"></path><path id="path1" d="M286.142 14.144 C 282.028 14.773,275.219 17.879,274.349 19.524 C 274.155 19.889,274.273 19.832,274.820 19.296 C 277.364 16.802,284.271 15.645,286.633 17.318 C 287.128 17.668,287.813 18.023,288.155 18.105 C 288.736 18.245,289.778 19.188,291.439 21.077 C 291.822 21.512,292.135 21.949,292.135 22.048 C 292.135 22.148,292.317 22.287,292.540 22.358 C 292.763 22.428,293.702 23.232,294.627 24.144 C 297.603 27.077,301.788 28.678,306.476 28.678 C 306.899 28.678,307.336 28.763,307.448 28.867 C 307.560 28.970,308.028 29.175,308.489 29.323 C 308.950 29.470,310.015 29.905,310.857 30.288 C 313.554 31.517,318.181 32.035,320.485 31.365 C 322.587 30.754,323.298 31.383,323.252 33.815 C 323.219 35.626,322.293 37.218,319.654 40.005 C 318.871 40.832,318.651 41.145,319.101 40.790 C 324.088 36.854,324.999 31.765,321.786 25.789 C 321.406 25.083,320.978 23.957,320.835 23.286 C 320.527 21.850,318.807 18.998,316.801 16.598 C 315.064 14.520,314.550 14.341,311.757 14.840 C 309.026 15.328,304.006 15.300,299.139 14.771 C 292.220 14.019,288.219 13.826,286.142 14.144 M116.322 17.872 C 110.610 20.220,106.574 26.514,107.951 30.926 C 108.205 31.738,108.214 31.699,108.122 30.136 C 108.029 28.572,108.064 28.413,108.814 26.937 C 111.229 22.183,113.952 20.449,113.971 23.653 C 113.992 27.108,117.830 27.947,121.750 25.353 C 123.014 24.517,123.659 24.491,124.815 25.230 C 125.367 25.583,126.210 25.974,126.687 26.098 C 127.164 26.223,127.964 26.429,128.464 26.557 C 128.965 26.685,129.760 27.012,130.233 27.285 C 130.705 27.558,131.475 27.808,131.945 27.841 C 133.652 27.961,134.511 28.772,134.842 30.576 C 135.016 31.528,135.022 31.513,134.974 30.177 C 134.732 23.446,122.459 15.350,116.322 17.872 M317.106 24.667 C 317.718 25.217,317.548 25.584,316.654 25.644 C 315.523 25.720,314.768 24.688,315.610 24.217 C 316.045 23.974,316.481 24.105,317.106 24.667 M216.800 40.806 C 209.834 41.283,206.113 42.396,201.731 45.313 C 186.366 55.542,186.289 77.246,201.582 87.720 C 205.753 90.577,208.233 91.441,218.834 93.734 C 238.963 98.087,240.987 98.913,245.530 104.629 C 254.400 115.791,248.348 133.500,234.555 136.742 C 229.179 138.005,203.142 137.939,198.614 136.651 C 196.121 135.941,192.116 135.921,191.086 136.612 C 187.961 138.710,192.384 146.765,197.168 147.687 C 200.764 148.380,227.598 148.305,233.280 147.586 C 256.889 144.598,268.428 117.927,254.270 99.071 C 248.253 91.057,242.287 87.945,226.859 84.772 C 212.288 81.775,209.909 81.019,206.586 78.329 C 198.897 72.102,198.873 61.213,206.534 54.653 C 210.141 51.565,210.105 51.570,233.708 51.430 C 255.552 51.301,254.429 51.379,255.031 49.938 C 255.503 48.808,255.513 43.407,255.044 42.314 C 254.356 40.709,255.275 40.782,235.527 40.752 C 225.875 40.738,217.448 40.762,216.800 40.806 M275.780 40.892 C 273.612 41.084,272.917 41.449,272.511 42.610 C 272.222 43.433,272.129 142.426,272.414 145.269 C 272.685 147.978,274.117 148.516,279.675 147.995 C 283.075 147.676,282.875 149.354,282.905 120.861 C 282.929 98.355,282.880 99.261,284.103 98.704 C 285.044 98.275,339.246 98.341,340.079 98.772 C 341.306 99.406,341.243 98.211,341.364 122.953 C 341.446 139.910,341.541 146.003,341.729 146.431 C 342.238 147.592,342.844 147.773,346.486 147.851 C 350.298 147.934,350.869 147.801,351.318 146.726 C 351.753 145.685,351.897 43.188,351.465 42.431 C 350.780 41.233,343.985 40.443,342.535 41.394 C 341.462 42.097,341.489 41.558,341.367 64.536 C 341.258 85.013,341.231 86.193,340.861 86.758 C 340.028 88.029,341.502 87.971,311.616 87.910 L 284.226 87.854 283.632 87.261 L 283.039 86.668 282.932 64.682 C 282.800 37.504,283.610 40.199,275.780 40.892 M154.521 41.002 C 154.109 41.047,152.761 41.191,151.525 41.322 C 111.694 45.534,90.360 92.679,113.574 125.189 C 125.865 142.403,143.210 149.726,166.317 147.458 C 177.718 146.340,179.561 145.230,178.375 140.200 C 177.412 136.113,176.159 135.406,171.333 136.223 C 153.829 139.188,142.215 136.729,130.337 127.546 C 109.313 111.290,109.460 78.467,130.633 61.338 C 141.595 52.470,155.647 49.586,171.827 52.882 C 176.185 53.770,177.192 53.147,178.282 48.885 C 179.539 43.970,178.621 42.991,171.768 41.939 C 167.078 41.219,157.354 40.691,154.521 41.002 M368.713 48.822 C 365.214 49.341,360.711 53.874,359.849 57.746 C 359.339 60.043,359.894 63.842,360.871 64.735 C 361.046 64.895,361.064 64.838,360.937 64.526 C 360.563 63.609,360.555 59.175,360.926 58.458 C 361.462 57.421,362.159 57.542,363.086 58.833 C 365.384 62.031,366.884 62.207,374.960 60.223 C 377.751 59.537,378.734 59.519,380.631 60.118 C 381.455 60.378,382.845 60.620,383.721 60.657 C 385.686 60.739,386.501 61.410,386.539 62.978 C 386.560 63.873,386.563 63.876,386.725 63.190 C 387.211 61.144,385.552 57.924,382.035 54.090 C 379.554 51.384,371.885 48.352,368.713 48.822 M45.683 105.075 C 44.971 105.309,43.575 105.995,42.580 106.599 C 41.585 107.204,40.000 108.159,39.058 108.722 C 34.239 111.605,24.846 118.161,22.859 120.030 C 20.342 122.397,19.678 123.731,16.983 131.835 C 16.099 134.496,15.101 136.805,12.934 141.202 C 11.353 144.412,10.059 147.185,10.059 147.366 C 10.059 148.603,13.162 151.543,16.372 153.348 C 17.684 154.085,17.519 153.914,15.191 152.124 C 10.577 148.577,10.363 147.258,14.536 148.088 C 17.256 148.629,20.475 148.630,21.341 148.089 C 21.667 147.885,22.009 147.909,23.021 148.205 C 24.408 148.612,25.447 148.704,30.284 148.851 C 35.452 149.008,38.214 149.288,41.529 149.993 C 43.242 150.357,45.457 150.752,46.452 150.872 C 47.447 150.992,48.887 151.186,49.652 151.303 C 50.417 151.420,51.551 151.518,52.171 151.521 C 52.791 151.523,54.187 151.715,55.274 151.947 C 56.361 152.180,58.261 152.416,59.497 152.471 C 66.956 152.808,72.399 153.715,78.866 155.700 C 80.161 156.097,81.605 156.538,82.076 156.679 C 84.257 157.334,88.908 160.076,90.632 161.723 C 90.983 162.059,91.623 162.574,92.053 162.868 C 92.484 163.162,93.463 163.862,94.229 164.422 C 94.995 164.983,96.522 165.937,97.624 166.542 C 102.613 169.284,107.425 173.560,107.971 175.736 C 108.264 176.904,103.889 181.321,101.076 182.697 C 97.649 184.374,85.873 181.879,75.655 177.313 C 65.512 172.779,56.880 169.266,56.593 169.553 C 56.541 169.605,56.908 169.770,57.409 169.920 C 59.452 170.530,63.439 172.209,74.713 177.206 C 84.104 181.369,91.900 183.427,98.473 183.479 C 102.254 183.509,110.585 177.058,112.197 172.853 C 112.672 171.614,112.952 161.458,112.533 160.660 C 112.069 159.774,111.417 161.287,111.175 163.817 C 110.796 167.775,107.418 167.785,105.195 163.834 C 104.482 162.565,101.750 159.347,99.391 156.997 C 97.677 155.290,93.738 153.110,91.223 152.478 C 90.485 152.292,89.377 151.909,88.759 151.627 C 88.142 151.344,86.921 150.962,86.046 150.778 C 85.172 150.594,83.560 150.061,82.465 149.593 C 81.371 149.125,80.348 148.743,80.192 148.743 C 79.858 148.743,76.563 147.634,75.696 147.230 C 75.328 147.059,74.929 146.586,74.667 146.013 L 74.240 145.075 74.787 143.978 C 75.088 143.374,75.334 142.799,75.334 142.699 C 75.334 142.600,75.527 142.311,75.762 142.059 C 75.998 141.806,76.190 141.334,76.190 141.010 C 76.190 140.686,76.284 140.363,76.398 140.293 C 77.814 139.418,77.648 136.195,76.077 134.082 C 75.792 133.699,75.558 133.010,75.497 132.370 C 75.440 131.782,75.140 130.753,74.829 130.083 C 73.885 128.049,74.096 126.200,75.479 124.388 C 75.870 123.875,76.190 123.368,76.190 123.261 C 76.190 123.154,76.476 122.603,76.825 122.035 C 77.174 121.468,77.603 120.393,77.777 119.647 C 77.951 118.900,78.185 118.198,78.298 118.085 C 78.418 117.965,78.429 117.626,78.324 117.260 C 78.227 116.919,78.225 116.640,78.321 116.640 C 78.579 116.640,78.769 115.735,78.565 115.474 C 78.469 115.350,78.324 114.975,78.244 114.641 C 77.977 113.522,75.318 111.111,73.676 110.498 C 63.512 106.703,49.180 103.927,45.683 105.075 M40.621 111.865 C 40.892 112.289,41.066 112.760,41.007 112.912 C 40.949 113.064,41.016 113.227,41.157 113.274 C 41.345 113.337,41.331 113.459,41.105 113.732 C 40.926 113.950,40.881 114.164,40.998 114.249 C 41.302 114.467,41.390 118.566,41.092 118.566 C 40.480 118.566,39.165 120.693,39.165 121.683 C 39.165 122.259,38.509 123.032,37.498 123.645 C 37.111 123.880,36.413 124.658,35.949 125.373 C 35.154 126.596,33.932 127.769,33.453 127.769 C 33.137 127.769,32.638 128.389,32.033 129.534 C 31.737 130.092,31.175 130.810,30.782 131.129 C 30.390 131.448,29.829 131.998,29.535 132.353 C 29.240 132.707,28.607 133.386,28.128 133.861 C 27.648 134.336,27.194 134.893,27.118 135.099 C 27.019 135.367,26.745 135.474,26.154 135.474 C 25.134 135.474,24.389 136.180,24.071 137.450 C 23.752 138.725,21.871 138.827,21.547 137.587 C 21.416 137.085,21.089 137.076,20.581 137.560 C 19.902 138.208,17.831 138.409,17.301 137.878 C 16.397 136.975,19.266 126.118,21.188 123.168 C 22.720 120.815,25.842 118.289,30.734 115.443 C 31.310 115.107,32.408 114.384,33.173 113.836 C 33.938 113.288,35.190 112.580,35.955 112.262 C 36.720 111.945,37.587 111.557,37.881 111.400 C 38.971 110.819,40.072 111.006,40.621 111.865 M26.966 158.768 C 33.513 162.029,38.775 164.251,43.464 165.733 C 47.781 167.098,47.714 166.944,43.339 165.445 C 38.841 163.904,33.001 161.420,29.261 159.456 C 26.665 158.092,21.558 155.784,21.222 155.821 C 21.144 155.830,23.729 157.156,26.966 158.768 M234.350 156.462 C 229.460 157.077,223.404 160.286,218.655 164.779 C 217.499 165.873,216.989 166.770,215.732 169.926 C 214.510 172.994,213.725 174.495,212.315 176.458 C 208.069 182.371,207.719 183.460,207.515 191.391 C 207.447 194.046,207.466 194.642,207.575 193.258 C 207.908 189.038,208.812 187.684,210.224 189.290 C 213.511 193.029,219.576 198.362,221.695 199.378 C 222.538 199.782,225.682 200.633,227.073 200.833 C 227.941 200.958,229.685 201.283,236.918 202.665 C 246.391 204.475,247.860 205.147,244.024 205.914 C 239.779 206.762,231.359 205.769,225.512 203.730 C 224.193 203.270,222.921 202.895,222.686 202.896 C 220.963 202.906,230.965 205.605,234.992 206.216 C 241.995 207.280,254.578 205.381,259.310 202.547 C 261.721 201.103,264.098 198.146,264.098 196.593 C 264.098 195.750,263.626 195.716,262.130 196.453 C 258.439 198.270,255.541 197.599,255.539 194.928 C 255.538 194.033,256.205 193.394,258.194 192.385 C 260.865 191.031,260.615 187.851,257.769 186.989 C 255.227 186.218,254.993 186.131,254.446 185.747 C 253.338 184.969,252.355 183.211,251.980 181.336 C 251.742 180.148,251.397 179.214,250.912 178.447 C 248.948 175.341,248.939 174.786,250.825 172.631 C 253.390 169.700,252.933 166.771,249.149 161.884 C 245.132 156.697,241.901 155.513,234.350 156.462 M234.326 158.295 C 235.423 159.064,234.147 161.987,232.070 163.461 C 231.286 164.018,230.141 164.906,229.527 165.436 C 228.912 165.966,227.483 167.160,226.350 168.090 C 225.218 169.020,224.291 169.852,224.291 169.939 C 224.291 170.246,221.065 173.279,219.313 174.620 C 219.107 174.778,218.363 174.947,217.661 174.993 C 213.407 175.278,215.310 168.157,220.653 163.794 C 225.901 159.508,232.353 156.913,234.326 158.295 M49.973 167.790 C 50.562 168.007,51.188 168.185,51.364 168.185 C 51.541 168.185,51.204 168.007,50.615 167.790 C 50.027 167.573,49.401 167.395,49.224 167.395 C 49.048 167.395,49.385 167.573,49.973 167.790 M224.340 190.983 C 225.078 191.261,226.356 191.828,227.180 192.243 C 228.004 192.657,229.064 193.118,229.535 193.267 C 230.005 193.415,231.354 193.989,232.531 194.542 C 233.708 195.094,235.301 195.748,236.070 195.996 C 238.978 196.930,240.556 197.965,240.556 198.939 C 240.556 200.875,229.812 198.353,225.468 195.398 C 224.997 195.077,224.076 194.562,223.420 194.253 C 219.114 192.225,219.931 189.319,224.340 190.983 " stroke="none" fill="#f6a11c" fill-rule="evenodd"></path><path id="path2" d="M0.000 107.009 L 0.000 214.018 200.000 214.018 L 400.000 214.018 400.000 107.009 L 400.000 0.000 200.000 0.000 L 0.000 0.000 0.000 107.009 M298.609 13.275 C 303.737 13.774,309.176 13.817,311.182 13.376 C 311.948 13.208,313.143 13.067,313.839 13.063 C 319.680 13.028,327.266 29.527,324.344 35.910 C 323.212 38.382,320.536 41.442,318.459 42.640 C 314.487 44.930,303.732 45.511,298.234 43.733 C 290.256 41.153,276.798 30.242,273.252 23.479 C 271.255 19.669,273.927 16.744,281.903 14.012 C 286.405 12.470,289.108 12.351,298.609 13.275 M122.870 16.894 C 129.449 19.108,133.611 22.420,135.494 26.941 C 137.767 32.398,135.488 35.222,127.790 36.486 C 113.158 38.890,110.523 38.589,108.029 34.229 C 105.270 29.407,106.350 24.281,111.058 19.852 C 115.042 16.104,118.185 15.317,122.870 16.894 M282.025 39.614 C 284.385 40.508,284.306 39.653,284.262 63.991 C 284.221 86.416,284.203 86.054,285.329 86.446 C 286.222 86.757,337.487 86.770,338.606 86.459 C 339.922 86.093,339.868 86.972,339.958 64.399 C 340.065 37.436,339.547 39.687,345.639 39.717 C 351.043 39.743,352.699 40.400,353.020 42.645 C 353.376 45.139,353.029 146.697,352.661 147.507 C 351.901 149.185,350.279 149.570,345.364 149.240 C 340.001 148.881,340.241 149.423,340.041 137.186 C 339.958 132.065,339.887 121.767,339.884 114.300 C 339.878 101.133,339.865 100.712,339.461 100.308 C 338.835 99.682,285.329 99.598,284.705 100.222 C 284.345 100.582,284.317 101.892,284.216 123.657 C 284.102 148.270,284.147 147.338,283.014 148.388 C 281.353 149.928,273.425 149.910,271.965 148.363 C 270.796 147.123,270.859 149.953,270.786 95.688 C 270.709 38.345,270.610 41.573,272.485 40.173 C 273.529 39.394,280.383 38.992,282.025 39.614 M254.722 39.981 C 256.434 40.824,256.715 41.689,256.715 46.121 C 256.715 53.152,257.591 52.773,241.520 52.697 C 225.725 52.622,213.781 52.901,211.985 53.385 C 204.141 55.501,199.708 65.608,203.578 72.552 C 207.013 78.716,210.290 80.160,229.320 83.896 C 244.076 86.792,252.406 92.141,258.071 102.356 C 267.452 119.276,258.456 141.497,239.735 147.646 C 235.115 149.164,230.776 149.473,214.553 149.442 C 195.611 149.406,195.345 149.371,192.491 146.515 C 187.589 141.612,187.295 135.783,191.900 134.824 C 193.733 134.442,197.010 134.686,199.358 135.379 L 201.284 135.947 212.306 136.145 C 231.950 136.498,235.093 136.107,240.128 132.690 C 251.720 124.823,250.774 106.781,238.435 100.403 C 235.711 98.995,232.445 98.075,223.221 96.116 C 207.220 92.719,204.758 91.874,199.647 88.023 C 180.941 73.932,187.931 44.043,210.844 40.145 C 214.688 39.491,216.866 39.430,235.313 39.458 L 253.719 39.486 254.722 39.981 M165.551 39.916 C 178.967 41.043,180.965 42.164,179.869 47.945 C 178.702 54.098,177.177 55.301,171.857 54.267 C 161.363 52.229,153.049 52.472,144.997 55.054 C 115.782 64.419,106.297 101.690,127.625 123.313 C 138.453 134.291,153.523 138.259,171.322 134.818 C 176.902 133.740,178.844 135.128,179.929 140.975 C 180.985 146.664,178.014 148.019,161.905 149.190 C 149.004 150.128,137.329 147.158,127.219 140.367 C 97.583 120.459,94.153 79.335,120.059 54.516 C 131.951 43.123,146.840 38.345,165.551 39.916 M372.713 47.861 C 380.469 50.126,384.522 53.135,387.083 58.527 C 389.762 64.169,387.314 67.171,379.041 68.389 C 377.078 68.678,374.610 69.111,373.557 69.352 C 367.122 70.825,363.020 69.935,360.643 66.550 C 356.509 60.664,358.198 53.446,364.716 49.138 C 367.627 47.213,369.482 46.917,372.713 47.861 M54.840 103.894 C 56.636 104.184,59.117 104.667,60.353 104.967 C 61.589 105.267,63.467 105.660,64.526 105.839 C 70.497 106.849,78.021 108.666,79.695 109.504 C 83.539 111.426,92.752 120.533,97.497 127.102 C 98.605 128.635,100.900 131.320,102.943 133.473 C 109.802 140.701,109.579 140.412,111.839 144.977 C 114.673 150.700,115.071 152.671,114.866 159.979 C 114.491 173.296,113.648 175.570,107.330 180.297 C 101.078 184.974,100.441 185.152,93.539 184.155 C 86.341 183.115,82.935 182.092,75.013 178.594 C 59.035 171.537,58.625 171.374,52.755 169.748 C 40.374 166.319,34.074 163.820,21.396 157.308 C 14.866 153.954,13.172 152.897,10.952 150.788 C 7.995 147.980,7.983 148.137,11.762 140.527 C 14.348 135.320,14.997 133.791,16.587 129.160 C 19.619 120.326,20.014 119.877,31.782 111.895 C 45.267 102.747,46.052 102.475,54.840 103.894 M243.613 155.264 C 248.822 156.368,253.507 162.862,254.363 170.165 C 254.701 173.046,255.080 173.970,256.428 175.200 C 263.103 181.293,265.708 185.517,266.456 191.459 C 267.138 196.883,265.723 200.067,261.333 202.985 C 255.786 206.672,241.843 208.755,233.387 207.160 C 230.302 206.578,226.587 205.637,224.533 204.918 C 222.345 204.151,222.282 204.143,220.020 204.289 C 216.796 204.498,214.318 203.668,210.358 201.050 C 206.480 198.487,205.923 196.871,206.301 189.282 C 206.631 182.672,206.961 181.783,211.477 175.382 C 212.874 173.402,213.977 171.278,214.999 168.601 C 216.222 165.395,216.727 164.697,219.410 162.505 C 227.192 156.147,235.727 153.593,243.613 155.264 " stroke="none" fill="#fbfbfb" fill-rule="evenodd"></path><path id="path3" d="M285.821 12.841 C 278.864 14.110,272.652 18.044,272.664 21.171 C 272.685 26.563,288.620 40.624,298.234 43.733 C 303.732 45.511,314.487 44.930,318.459 42.640 C 320.536 41.442,323.212 38.382,324.344 35.910 C 327.266 29.527,319.680 13.028,313.839 13.063 C 313.143 13.067,311.948 13.208,311.182 13.376 C 309.176 13.817,303.737 13.774,298.609 13.275 C 293.482 12.776,287.323 12.567,285.821 12.841 M291.817 14.129 C 293.699 14.249,296.994 14.538,299.139 14.771 C 304.006 15.300,309.026 15.328,311.757 14.840 C 314.550 14.341,315.064 14.520,316.801 16.598 C 318.811 19.003,320.528 21.851,320.833 23.286 C 320.975 23.957,321.371 25.007,321.712 25.620 C 323.387 28.629,324.158 32.507,323.518 34.708 C 322.613 37.820,318.939 41.604,315.942 42.512 C 311.717 43.791,303.133 44.197,299.779 43.275 C 292.328 41.228,280.137 31.776,274.840 23.939 C 272.352 20.258,274.500 17.737,282.290 15.196 C 286.303 13.887,286.926 13.817,291.817 14.129 M116.584 16.377 C 109.572 18.952,105.103 26.125,106.987 31.782 C 109.240 38.549,111.761 39.119,127.790 36.486 C 135.488 35.222,137.767 32.398,135.494 26.941 C 132.847 20.585,121.852 14.443,116.584 16.377 M122.148 18.004 C 129.645 20.401,134.938 25.498,134.938 30.317 C 134.938 33.924,132.810 34.876,121.318 36.407 C 111.960 37.654,109.979 36.933,108.202 31.637 C 106.780 27.397,108.889 22.602,113.588 19.391 C 116.817 17.186,118.657 16.887,122.148 18.004 M315.610 24.217 C 314.768 24.688,315.523 25.720,316.654 25.644 C 317.548 25.584,317.718 25.217,317.106 24.667 C 316.481 24.105,316.045 23.974,315.610 24.217 M275.896 39.482 C 271.917 39.873,271.257 40.405,270.918 43.494 C 270.582 46.549,270.790 145.873,271.134 146.923 C 271.831 149.049,272.911 149.492,277.261 149.438 C 281.818 149.381,283.101 148.960,283.855 147.277 C 284.044 146.855,284.137 140.795,284.216 123.657 C 284.317 101.892,284.345 100.582,284.705 100.222 C 285.329 99.598,338.835 99.682,339.461 100.308 C 339.865 100.712,339.878 101.133,339.884 114.300 C 339.887 121.767,339.958 132.065,340.041 137.186 C 340.241 149.423,340.001 148.881,345.364 149.240 C 350.279 149.570,351.901 149.185,352.661 147.507 C 353.029 146.697,353.376 45.139,353.020 42.645 C 352.699 40.400,351.043 39.743,345.639 39.717 C 339.547 39.687,340.065 37.436,339.958 64.399 C 339.868 86.972,339.922 86.093,338.606 86.459 C 337.487 86.770,286.222 86.757,285.329 86.446 C 284.203 86.054,284.221 86.416,284.262 63.991 C 284.296 45.077,284.266 43.014,283.944 41.938 C 283.186 39.414,281.576 38.922,275.896 39.482 M214.910 39.612 C 210.193 40.041,207.107 40.796,204.280 42.214 C 183.728 52.524,183.608 80.396,204.073 90.780 C 208.078 92.812,209.412 93.184,223.221 96.116 C 232.445 98.075,235.711 98.995,238.435 100.403 C 250.774 106.781,251.720 124.823,240.128 132.690 C 235.093 136.107,231.950 136.498,212.306 136.145 L 201.284 135.947 199.358 135.379 C 197.010 134.686,193.733 134.442,191.900 134.824 C 187.295 135.783,187.589 141.612,192.491 146.515 C 195.345 149.371,195.611 149.406,214.553 149.442 C 230.776 149.473,235.115 149.164,239.735 147.646 C 258.456 141.497,267.452 119.276,258.071 102.356 C 252.406 92.141,244.076 86.792,229.320 83.896 C 210.290 80.160,207.013 78.716,203.578 72.552 C 199.708 65.608,204.141 55.501,211.985 53.385 C 213.781 52.901,225.725 52.622,241.520 52.697 C 257.591 52.773,256.715 53.152,256.715 46.121 C 256.715 41.689,256.434 40.824,254.722 39.981 L 253.719 39.486 235.313 39.458 C 225.190 39.443,216.009 39.512,214.910 39.612 M153.451 39.740 C 114.260 42.670,90.669 85.177,108.872 120.064 C 119.073 139.613,139.479 150.821,161.905 149.190 C 178.014 148.019,180.985 146.664,179.929 140.975 C 178.844 135.128,176.902 133.740,171.322 134.818 C 155.154 137.944,142.623 135.344,131.236 126.502 C 109.520 109.640,111.443 75.041,134.938 59.871 C 145.349 53.151,157.001 51.382,171.857 54.267 C 173.328 54.553,174.801 54.787,175.129 54.788 C 179.081 54.793,182.033 44.498,178.674 42.422 C 175.686 40.576,161.892 39.109,153.451 39.740 M253.887 41.142 C 255.927 42.054,256.106 49.983,254.110 51.003 C 253.600 51.264,250.387 51.331,233.708 51.430 C 210.105 51.570,210.141 51.565,206.534 54.653 C 198.873 61.213,198.897 72.102,206.586 78.329 C 209.909 81.019,212.288 81.775,226.859 84.772 C 242.287 87.945,248.253 91.057,254.270 99.071 C 267.406 116.566,258.014 142.371,236.811 147.039 C 229.554 148.636,198.352 148.646,195.227 147.052 C 192.246 145.531,189.297 139.944,190.255 137.632 C 190.928 136.007,194.767 135.556,198.614 136.651 C 203.142 137.939,229.179 138.005,234.555 136.742 C 248.348 133.500,254.400 115.791,245.530 104.629 C 240.987 98.913,238.963 98.087,218.834 93.734 C 208.233 91.441,205.753 90.577,201.582 87.720 C 186.289 77.246,186.366 55.542,201.731 45.313 C 206.113 42.396,209.834 41.283,216.800 40.806 C 221.142 40.509,253.119 40.798,253.887 41.142 M281.422 40.935 C 282.905 41.685,282.813 40.237,282.932 64.682 L 283.039 86.668 283.632 87.261 L 284.226 87.854 311.616 87.910 C 341.502 87.971,340.028 88.029,340.861 86.758 C 341.231 86.193,341.258 85.013,341.367 64.536 C 341.489 41.558,341.462 42.097,342.535 41.394 C 343.985 40.443,350.780 41.233,351.465 42.431 C 351.897 43.188,351.753 145.685,351.318 146.726 C 350.527 148.618,342.581 148.374,341.729 146.431 C 341.541 146.003,341.446 139.910,341.364 122.953 C 341.243 98.211,341.306 99.406,340.079 98.772 C 339.246 98.341,285.044 98.275,284.103 98.704 C 282.880 99.261,282.929 98.355,282.905 120.861 C 282.880 145.161,282.831 146.441,281.904 147.269 C 280.664 148.377,274.224 148.480,273.154 147.409 C 272.247 146.501,272.258 147.137,272.256 93.526 C 272.255 39.917,272.207 42.295,273.319 41.471 C 274.208 40.812,280.374 40.404,281.422 40.935 M166.399 41.300 C 178.034 42.312,179.692 43.371,178.282 48.885 C 177.192 53.147,176.185 53.770,171.827 52.882 C 155.647 49.586,141.595 52.470,130.633 61.338 C 109.460 78.467,109.313 111.290,130.337 127.546 C 142.215 136.729,153.829 139.188,171.333 136.223 C 176.159 135.406,177.412 136.113,178.375 140.200 C 179.561 145.230,177.718 146.340,166.317 147.458 C 145.360 149.515,130.141 144.113,117.590 130.163 C 88.782 98.143,108.759 45.844,151.525 41.322 C 152.761 41.191,154.109 41.047,154.521 41.002 C 155.840 40.857,163.523 41.050,166.399 41.300 M367.177 47.824 C 360.350 50.631,356.813 57.662,359.122 63.833 C 361.187 69.354,365.816 71.124,373.557 69.352 C 374.610 69.111,377.078 68.678,379.041 68.389 C 384.235 67.625,386.494 66.562,387.619 64.356 C 389.409 60.848,385.192 53.389,379.924 50.745 C 373.795 47.668,369.789 46.750,367.177 47.824 M373.054 49.402 C 377.570 50.729,380.633 52.463,382.711 54.870 C 389.331 62.539,388.142 65.985,378.384 67.407 C 376.795 67.638,374.532 68.029,373.355 68.274 C 367.717 69.448,364.525 69.075,362.547 67.011 C 358.260 62.539,358.632 56.406,363.465 51.900 C 366.882 48.713,368.908 48.185,373.054 49.402 M46.073 103.471 C 43.867 104.095,39.391 106.733,31.782 111.895 C 20.014 119.877,19.619 120.326,16.587 129.160 C 14.997 133.791,14.348 135.320,11.762 140.527 C 7.983 148.137,7.995 147.980,10.952 150.788 C 13.172 152.897,14.866 153.954,21.396 157.308 C 34.074 163.820,40.374 166.319,52.755 169.748 C 56.629 170.821,57.374 171.067,60.465 172.293 C 62.912 173.263,64.536 173.967,75.013 178.594 C 82.935 182.092,86.341 183.115,93.539 184.155 C 100.441 185.152,101.078 184.974,107.330 180.297 C 113.648 175.570,114.491 173.296,114.866 159.979 C 115.071 152.671,114.673 150.700,111.839 144.977 C 109.579 140.412,109.802 140.701,102.943 133.473 C 100.900 131.320,98.605 128.635,97.497 127.102 C 92.752 120.533,83.539 111.426,79.695 109.504 C 78.021 108.666,70.497 106.849,64.526 105.839 C 63.467 105.660,61.589 105.267,60.353 104.967 C 54.639 103.579,48.111 102.895,46.073 103.471 M54.468 105.371 C 59.510 106.263,69.412 108.906,73.676 110.498 C 75.318 111.111,77.977 113.522,78.244 114.641 C 78.324 114.975,78.469 115.350,78.565 115.474 C 78.769 115.735,78.579 116.640,78.321 116.640 C 78.225 116.640,78.227 116.919,78.324 117.260 C 78.429 117.626,78.418 117.965,78.298 118.085 C 78.185 118.198,77.951 118.900,77.777 119.647 C 77.603 120.393,77.174 121.468,76.825 122.035 C 76.476 122.603,76.190 123.154,76.190 123.261 C 76.190 123.368,75.870 123.875,75.479 124.388 C 74.096 126.200,73.885 128.049,74.829 130.083 C 75.140 130.753,75.440 131.782,75.497 132.370 C 75.558 133.010,75.792 133.699,76.077 134.082 C 77.648 136.195,77.814 139.418,76.398 140.293 C 76.284 140.363,76.190 140.686,76.190 141.010 C 76.190 141.334,75.998 141.806,75.762 142.059 C 75.527 142.311,75.334 142.600,75.334 142.699 C 75.334 142.799,75.088 143.374,74.787 143.978 L 74.240 145.075 74.667 146.013 C 74.929 146.586,75.328 147.059,75.696 147.230 C 76.563 147.634,79.858 148.743,80.192 148.743 C 80.348 148.743,81.371 149.125,82.465 149.593 C 83.560 150.061,85.172 150.594,86.046 150.778 C 86.921 150.962,88.142 151.344,88.759 151.627 C 89.377 151.909,90.485 152.292,91.223 152.478 C 93.738 153.110,97.677 155.290,99.391 156.997 C 101.750 159.347,104.482 162.565,105.195 163.834 C 107.418 167.785,110.796 167.775,111.175 163.817 C 111.417 161.287,112.069 159.774,112.533 160.660 C 112.952 161.458,112.672 171.614,112.197 172.853 C 110.585 177.058,102.254 183.509,98.473 183.479 C 91.900 183.427,84.104 181.369,74.713 177.206 C 61.006 171.131,58.897 170.285,54.225 168.995 C 37.771 164.450,17.780 155.530,12.060 150.179 C 9.486 147.771,9.434 148.307,12.934 141.202 C 15.101 136.805,16.099 134.496,16.983 131.835 C 19.678 123.731,20.342 122.397,22.859 120.030 C 24.846 118.161,34.239 111.605,39.058 108.722 C 40.000 108.159,41.585 107.204,42.580 106.599 C 46.077 104.474,48.171 104.257,54.468 105.371 M233.673 155.279 C 229.208 155.975,224.455 158.383,219.410 162.505 C 216.727 164.697,216.222 165.395,214.999 168.601 C 213.977 171.278,212.874 173.402,211.477 175.382 C 206.961 181.783,206.631 182.672,206.301 189.282 C 205.923 196.871,206.480 198.487,210.358 201.050 C 214.318 203.668,216.796 204.498,220.020 204.289 C 222.282 204.143,222.345 204.151,224.533 204.918 C 226.587 205.637,230.302 206.578,233.387 207.160 C 240.329 208.470,252.397 207.156,258.859 204.386 C 267.951 200.488,269.297 190.747,262.066 181.166 C 260.470 179.052,259.356 177.873,256.428 175.200 C 255.080 173.970,254.701 173.046,254.363 170.165 C 253.507 162.862,248.822 156.368,243.613 155.264 C 241.774 154.875,236.217 154.883,233.673 155.279 M242.132 156.552 C 247.574 157.705,254.078 167.177,252.083 171.044 C 251.980 171.245,251.413 171.959,250.825 172.631 C 248.939 174.786,248.948 175.341,250.912 178.447 C 251.397 179.214,251.742 180.148,251.980 181.336 C 252.355 183.211,253.338 184.969,254.446 185.747 C 254.993 186.131,255.227 186.218,257.769 186.989 C 260.615 187.851,260.865 191.031,258.194 192.385 C 256.205 193.394,255.538 194.033,255.539 194.928 C 255.541 197.599,258.439 198.270,262.130 196.453 C 264.237 195.415,264.681 196.066,263.445 198.383 C 262.178 200.760,259.544 202.807,256.421 203.840 C 245.662 207.398,235.928 207.390,224.990 203.815 L 221.943 202.819 220.154 203.098 C 217.460 203.517,214.730 202.625,211.045 200.122 C 207.797 197.917,207.481 197.185,207.522 191.974 C 207.587 183.833,208.015 182.447,212.315 176.458 C 213.725 174.495,214.510 172.994,215.732 169.926 C 217.543 165.380,218.632 164.159,224.010 160.641 C 229.841 156.827,236.422 155.342,242.132 156.552 M220.785 190.752 C 219.902 191.398,221.298 193.254,223.420 194.253 C 224.076 194.562,224.997 195.077,225.468 195.398 C 229.812 198.353,240.556 200.875,240.556 198.939 C 240.556 197.965,238.978 196.930,236.070 195.996 C 235.301 195.748,233.708 195.094,232.531 194.542 C 231.354 193.989,230.005 193.415,229.535 193.267 C 229.064 193.118,228.004 192.657,227.180 192.243 C 223.916 190.601,221.699 190.084,220.785 190.752 " stroke="none" fill="#f9d28b" fill-rule="evenodd"></path></g></svg>