<svg id="svg" xmlns="http://www.w3.org/2000/svg" xmlns:xlink="http://www.w3.org/1999/xlink" width="400" height="559.9496221662469" viewBox="0, 0, 400,559.9496221662469"><g id="svgg"><path id="path0" d="M55.123 60.379 C 54.724 60.627,53.758 62.028,52.741 63.836 C 41.915 83.072,41.004 84.553,34.919 92.821 C 23.144 108.823,17.334 118.965,15.460 126.793 C 13.128 136.530,12.706 138.147,11.706 141.184 C 9.234 148.690,4.520 157.949,1.245 161.730 L -0.000 163.167 -0.000 345.311 C -0.000 445.491,0.088 527.456,0.194 527.456 C 0.424 527.456,0.075 527.737,10.831 518.886 C 21.067 510.464,25.449 506.967,35.768 498.989 C 42.305 493.936,44.524 492.050,48.363 488.285 C 55.206 481.573,54.019 481.984,58.604 484.735 C 64.466 488.252,66.941 489.341,71.224 490.289 C 72.712 490.619,75.970 491.512,78.463 492.276 C 88.318 495.291,91.178 495.654,94.031 494.250 L 95.706 493.425 97.747 494.070 C 111.451 498.399,129.409 493.731,163.508 476.975 C 167.058 475.231,170.073 473.804,170.207 473.804 C 170.787 473.804,171.699 475.812,180.727 496.977 C 193.765 527.542,197.927 537.054,198.434 537.439 C 199.109 537.952,199.425 537.846,199.716 537.011 C 200.013 536.159,200.053 536.277,191.061 511.461 C 188.752 505.088,185.745 496.757,184.379 492.947 C 183.012 489.137,180.697 482.687,179.234 478.613 C 175.986 469.567,176.014 470.476,178.904 467.728 C 182.815 464.010,182.199 463.803,190.219 471.534 C 199.370 480.355,208.549 489.239,215.491 495.995 C 218.123 498.557,224.244 504.496,229.093 509.193 C 233.942 513.890,239.167 518.957,240.704 520.454 C 243.678 523.348,244.332 523.697,244.332 522.391 C 244.332 520.859,241.648 517.878,225.073 501.007 C 221.465 497.335,215.396 491.158,211.586 487.279 C 207.775 483.400,200.771 476.282,196.020 471.460 C 186.522 461.820,186.422 461.695,187.522 460.818 C 188.670 459.903,189.079 459.916,191.016 460.932 C 203.346 467.398,241.492 487.098,253.799 493.355 C 262.675 497.868,264.039 498.489,265.078 498.489 L 266.260 498.489 265.885 497.764 C 265.496 497.013,261.188 494.521,223.804 473.430 C 189.415 454.028,193.277 456.615,195.529 454.497 C 197.968 452.203,195.498 451.844,220.838 458.181 C 271.454 470.839,278.645 472.579,279.651 472.409 C 281.590 472.081,280.493 471.465,274.787 469.676 C 269.076 467.885,241.458 459.411,230.479 456.081 C 200.298 446.926,202.167 447.988,211.136 445.092 C 224.436 440.797,231.646 437.006,241.562 429.094 C 246.854 424.872,249.570 422.223,251.380 419.521 C 254.922 414.232,257.583 411.166,266.023 402.645 C 279.187 389.354,280.163 387.531,284.631 367.884 C 287.731 354.250,287.784 353.974,288.777 346.222 C 289.568 340.052,292.409 320.662,292.992 317.453 C 293.388 315.276,297.161 310.386,304.998 301.899 C 312.308 293.981,311.785 294.655,313.856 290.466 C 316.617 284.878,327.237 267.712,337.020 253.023 C 345.854 239.759,349.851 232.904,354.019 223.866 C 356.987 217.432,357.104 217.223,361.032 211.398 C 364.299 206.552,365.421 204.407,366.335 201.259 C 366.677 200.082,367.307 198.382,367.735 197.481 C 369.092 194.627,368.929 193.711,366.563 190.890 C 362.261 185.764,361.130 184.958,355.290 182.861 C 348.562 180.446,347.929 180.336,341.287 180.446 C 334.443 180.558,336.582 180.052,298.992 190.463 C 287.095 193.758,282.634 194.836,272.530 196.858 C 267.216 197.921,261.673 199.066,260.213 199.402 C 256.367 200.287,253.496 200.376,244.576 199.886 L 236.650 199.450 232.620 197.807 C 227.734 195.816,229.395 196.711,191.688 175.755 C 173.472 165.632,134.656 144.275,131.990 142.909 C 130.394 142.092,128.712 141.529,125.386 140.701 C 118.951 139.099,115.773 137.377,113.385 134.201 C 111.065 131.115,103.928 117.518,98.606 106.045 C 88.562 84.396,84.807 79.377,74.218 73.452 C 69.355 70.730,68.508 70.071,63.224 64.888 C 57.796 59.564,57.079 59.165,55.123 60.379 M54.859 301.275 C 59.572 301.790,62.748 303.008,62.316 304.136 C 62.243 304.324,61.081 305.596,59.734 306.962 C 51.739 315.065,47.701 329.439,51.242 337.189 C 56.605 348.925,71.961 332.899,72.756 314.736 L 72.922 310.957 73.712 310.991 C 76.800 311.124,82.192 317.151,85.092 323.712 C 88.248 330.851,88.203 331.858,84.479 337.569 C 72.418 356.065,42.027 346.952,38.817 323.878 C 38.503 321.617,39.069 313.499,39.691 311.362 C 41.061 306.648,45.918 301.891,50.000 301.264 C 51.844 300.981,52.173 300.981,54.859 301.275 M188.998 352.078 C 189.059 352.182,188.324 353.344,187.365 354.660 C 179.647 365.247,178.059 382.755,184.564 385.546 C 193.225 389.263,204.685 370.279,202.925 355.129 C 202.578 352.142,204.422 351.676,209.414 353.488 C 219.693 357.219,221.848 366.238,215.427 378.656 C 204.455 399.876,171.936 397.685,165.845 375.315 C 163.780 367.728,167.469 360.974,176.624 355.583 C 180.754 353.151,188.362 350.996,188.998 352.078 " stroke="none" fill="#000000" fill-rule="evenodd"></path></g></svg>